<svg id="logo" xmlns="http://www.w3.org/2000/svg" viewBox="0 0 536.58 149.71">
  <defs>
    <style>
      #logo .cls-1 {
        fill: #e6e6e6;
      }

      #logo .cls-2 {
        fill: #f15a24;
      }

      #logo .cls-3 {
        fill: #f7931e;
      }
    </style>
  </defs>
  <title>logo</title>
  <path class="cls-1" d="M299.53,84.21a139.18,139.18,0,0,1,33.23-2.78c5.79.2,5.79-8.8,0-9a149.46,149.46,0,0,0-35.62,3.1c-5.67,1.18-3.27,9.85,2.39,8.68Z" transform="translate(-97.8 -45.62)"/>
  <path class="cls-2" d="M357.49,91.17l27.64-.61c1.81,0,4.89-.65,6.66-.13,2.07.61,2,1.91,2.21,3.83s.22,4.13.33,6.18c.07,1.26,1,4.95.32,5.84-1.25,1.74-8.57,2.09-10.64,2.38-4.14.58-8.29.71-12.45,1.06-6.76.57-11.52,3.8-14,10.2-2.9,7.47-3.62,16.1-5.14,23.93s-3.67,15.62-3.92,23.5c-.2,6.54,1.62,13.21,7.06,17.29,5.8,4.35,14,5,21,5.63a102.76,102.76,0,0,0,15.36.28c3.62-.21,7.52-.32,9.49-3.84s1.2-8.72,1.22-12.52c0-5.24-.11-10.48-.38-15.71-.29-5.76-9.29-5.8-9,0,.2,4,.34,8,.37,12,0,1.43.84,11.45-.17,12,.89-.51-2-1.1-1.53-1-1.09-.32-2.68.12-3.84.15q-2.88.05-5.77-.05a89.39,89.39,0,0,1-13.86-1.52c-7.81-1.53-11.31-5.37-10.88-13.5.41-7.8,2.64-15.65,4.12-23.29q1.22-6.32,2.45-12.64c.58-3,1-6.39,2.52-9.06,2-3.36,5.52-2.92,8.93-3.13,4-.25,8.05-.71,12-1.34,5.42-.85,12.94-1.43,15.31-7.31,1.08-2.68.61-5.73.46-8.53-.19-3.56-.1-7.3-.79-10.81-1.66-8.45-8.07-9.15-15.48-9l-29.61.65c-5.78.13-5.8,9.13,0,9Z" transform="translate(-97.8 -45.62)"/>
  <path class="cls-2" d="M438.25,92.08c7.23-2,15.76-1,23.22-1l23.14-.22c5.79-.05,5.8-9.05,0-9l-25.07.23c-7.75.07-16.15-.76-23.69,1.34-5.57,1.55-3.21,10.24,2.39,8.68Z" transform="translate(-97.8 -45.62)"/>
  <path class="cls-2" d="M436.75,105.68c4.91-2.38,11.88-1.3,17.17-1.34l18.94-.14c6.57,0,13.39-.65,19.93-.15,2.86.22,2.58,2,2.28,4.7-.38,3.39-1.84,5-4.9,6.35-5.16,2.19-11.09,2.38-16.62,2.61-6.22.25-12.45.38-18.68.47s-12.82-.67-18.91.09h-2q2.68,1.85,2.2-.34c.41-.76.07-3.86.13-4.64a49.68,49.68,0,0,1,1.91-9.74c1.61-5.58-7.08-8-8.68-2.39a59,59,0,0,0-2.34,14c-.12,3-.52,6.91,1.28,9.5s4.6,2.59,7.48,2.64c4.64.08,9.29,0,13.93,0,9.63-.09,19.37,0,29-.82,6.73-.55,14.48-1.5,19.85-6,5.16-4.33,6.63-12.1,4.88-18.47-2.32-8.47-12.06-6.88-18.78-6.83l-27.9.2c-8.12.06-17.2-1.06-24.71,2.59-5.21,2.53-.65,10.29,4.54,7.77Z" transform="translate(-97.8 -45.62)"/>
  <path class="cls-2" d="M428.82,143.18l76.75-5-4.34-3.3a70.24,70.24,0,0,1,.8,11.57c0,3.21.28,7.6-1,10.58-1.5,3.35-6.22,2.5-9.4,2.61l-11.94.4-47.77,1.6c-5.78.19-5.8,9.19,0,9,20.57-.69,41.14-1.32,61.7-2.07,7.1-.26,13.87-1.4,16.09-9.15,2.43-8.5,1.56-18.34.25-26.94a4.49,4.49,0,0,0-4.34-3.3l-76.75,5c-5.75.37-5.79,9.37,0,9Z" transform="translate(-97.8 -45.62)"/>
  <path class="cls-1" d="M394.83,156.91a1142,1142,0,0,0,133.3-9.26c5.67-.73,5.74-9.74,0-9a1142,1142,0,0,1-133.3,9.26c-5.79.06-5.8,9.06,0,9Z" transform="translate(-97.8 -45.62)"/>
  <path class="cls-3" d="M460.81,70.45q.87,31.53.26,63.08-.31,15.77-1,31.52c-.21,4.88-1.56,11-.79,15.75q-.67,3.81.9.26l-3.77,0-7.53,0c-5.79,0-5.8,9,0,9,4.41,0,10.51,1.15,14.72-.43s4.5-5.73,4.73-9.75q1-18.21,1.51-36.44,1-36.46,0-72.93c-.16-5.78-9.16-5.8-9,0Z" transform="translate(-97.8 -45.62)"/>
  <path class="cls-2" d="M574.59,114.92c-16,15.72-33.78,30.26-55.38,37.34-5.48,1.79-3.13,10.49,2.39,8.68,23.12-7.57,42.21-22.81,59.36-39.65,4.14-4.07-2.23-10.43-6.36-6.36Z" transform="translate(-97.8 -45.62)"/>
  <path class="cls-2" d="M578.48,125.12a204.71,204.71,0,0,0,50.32,21.35c5.59,1.53,8-7.15,2.39-8.68A195.45,195.45,0,0,1,583,117.35c-5-3-9.53,4.82-4.54,7.77Z" transform="translate(-97.8 -45.62)"/>
  <path class="cls-3" d="M575.62,71.58q.65,59.73-2.53,119.41c-.31,5.79,8.69,5.77,9,0q3.17-59.65,2.53-119.41c-.06-5.79-9.06-5.8-9,0Z" transform="translate(-97.8 -45.62)"/>
  <path class="cls-1" d="M555.89,92.16a347.33,347.33,0,0,0,43.15-3c5.66-.75,5.73-9.76,0-9a347.33,347.33,0,0,1-43.15,3c-5.79,0-5.8,9,0,9Z" transform="translate(-97.8 -45.62)"/>
  <path class="cls-1" d="M556.76,153.95l50.56-.61c5.79-.07,5.8-9.07,0-9l-50.56.61c-5.79.07-5.8,9.07,0,9Z" transform="translate(-97.8 -45.62)"/>
  <path class="cls-3" d="M306.4,112.28c7.77-1.33,15.57-2.46,23.41-3.32l1.9-.2q3.55-.45.5.07c-.68,1.07-1.61,2-2.39,3-1.77,2.25-3.45,4.57-5,7-7.17,11-12.13,23.37-16.38,35.75-3.27,9.54-10,24-1.08,32.5,3.51,3.33,8.3,4.35,13,4.67,7.13.49,14.37.25,21.52.34,5.79.08,5.8-8.92,0-9-7.13-.09-14.41.22-21.52-.34s-9.42-4.45-7.76-11.35a175.76,175.76,0,0,1,14.19-37.89,97.16,97.16,0,0,1,10.46-16.57c3.06-3.83,6.07-7.95,3.88-13-2.63-6.15-9.87-4.09-15.07-3.47q-11,1.32-22,3.21c-5.7,1-3.28,9.65,2.39,8.68Z" transform="translate(-97.8 -45.62)"/>
  <path class="cls-2" d="M100.3,67.91a880.5,880.5,0,0,0-.82,120.64c.36,5.75,9.36,5.79,9,0a880.5,880.5,0,0,1,.82-120.64c.44-5.78-8.57-5.75-9,0Z" transform="translate(-97.8 -45.62)"/>
  <path class="cls-1" d="M103.63,121.33q15.55-.64,31.11-.76c9.73-.06,21.22-1.5,30.55,1.62,5.51,1.84,7.87-6.85,2.39-8.68-9.62-3.22-21-2-31-2q-16.54.07-33.06.77c-5.77.24-5.8,9.24,0,9Z" transform="translate(-97.8 -45.62)"/>
  <path class="cls-3" d="M156.83,75.32c0,35.73-8.16,71.28-2.13,106.91,1,5.7,9.64,3.28,8.68-2.39-5.86-34.69,2.48-69.71,2.46-104.52,0-5.79-9-5.8-9,0Z" transform="translate(-97.8 -45.62)"/>
  <path class="cls-3" d="M208.72,51.2A30.9,30.9,0,0,1,203,79c-3.65,4.44,2.68,10.85,6.36,6.36A40.34,40.34,0,0,0,217.4,48.8c-1.52-5.58-10.2-3.21-8.68,2.39Z" transform="translate(-97.8 -45.62)"/>
  <path class="cls-1" d="M218.88,125.55c-7.8.84-17.32,3-19,12.11-1.62,8.66,6,14.17,12.48,18,4,2.4,8,4.94,11.79,7.66,1.71,1.22,10.22,6.36,9.28,9.23-.28.84-6,2-7,2.23q-4,1.12-8,1.91a103.54,103.54,0,0,1-16.13,1.8c-5.77.22-5.8,9.22,0,9a113.8,113.8,0,0,0,29.2-4.81c7.18-2.22,13.5-5.78,10-14.36-3.07-7.52-12.09-12.5-18.58-16.72-3.86-2.5-8.72-4.49-12-7.76-6.19-6.2,3-8.77,8-9.31,5.7-.61,5.76-9.62,0-9Z" transform="translate(-97.8 -45.62)"/>
</svg>
